<?xml version="1.0" encoding="utf-8"?>
<!-- Generator: Adobe Illustrator 16.0.0, SVG Export Plug-In . SVG Version: 6.00 Build 0)  -->
<!DOCTYPE svg PUBLIC "-//W3C//DTD SVG 1.1//EN" "http://www.w3.org/Graphics/SVG/1.1/DTD/svg11.dtd">
<svg version="1.1" id="Layer_1" xmlns="http://www.w3.org/2000/svg" xmlns:xlink="http://www.w3.org/1999/xlink" x="0px" y="0px"
	 width="192.797px" height="29.08px" viewBox="0 0 192.797 29.08" enable-background="new 0 0 192.797 29.08" xml:space="preserve">
<g>
	<path fill="#444444" d="M0,5.28V0h23.4v5.28h-8.56v23.28H8.56V5.28H0z"/>
	<path fill="#444444" d="M23.239,4.68V0h5.68v4.68H23.239z M28.919,7.88v20.68h-5.68V7.88H28.919z"/>
	<path fill="#444444" d="M35.919,7.88v2.8h0.08c0.747-1.066,1.646-1.893,2.7-2.48c1.053-0.586,2.26-0.88,3.62-0.88
		c1.306,0,2.5,0.254,3.58,0.76c1.08,0.507,1.9,1.4,2.46,2.68c0.613-0.906,1.446-1.707,2.5-2.4c1.053-0.693,2.3-1.04,3.74-1.04
		c1.093,0,2.106,0.134,3.04,0.4c0.933,0.267,1.733,0.693,2.4,1.28c0.667,0.587,1.187,1.354,1.56,2.3
		c0.373,0.947,0.56,2.086,0.56,3.42v13.84h-5.68V16.84c0-0.693-0.027-1.346-0.08-1.96c-0.054-0.613-0.2-1.146-0.44-1.6
		c-0.24-0.453-0.594-0.813-1.06-1.08c-0.467-0.267-1.1-0.4-1.9-0.4c-0.8,0-1.447,0.153-1.94,0.46c-0.494,0.307-0.88,0.707-1.16,1.2
		c-0.28,0.494-0.467,1.054-0.56,1.68c-0.094,0.627-0.14,1.26-0.14,1.9v11.52h-5.68v-11.6c0-0.613-0.014-1.22-0.04-1.82
		c-0.027-0.6-0.14-1.153-0.34-1.66c-0.2-0.506-0.534-0.913-1-1.22c-0.467-0.307-1.154-0.46-2.06-0.46c-0.267,0-0.62,0.06-1.06,0.18
		c-0.44,0.12-0.867,0.347-1.28,0.68c-0.414,0.333-0.767,0.813-1.06,1.44c-0.293,0.627-0.44,1.447-0.44,2.46v12h-5.68V7.88H35.919z"
		/>
	<path fill="#444444" d="M85.799,0c1.36,0,2.6,0.12,3.72,0.36c1.12,0.24,2.08,0.634,2.88,1.18c0.8,0.547,1.42,1.274,1.86,2.18
		c0.44,0.907,0.66,2.027,0.66,3.36c0,1.44-0.327,2.64-0.98,3.6c-0.654,0.96-1.62,1.747-2.9,2.36c1.76,0.507,3.073,1.394,3.94,2.66
		c0.866,1.267,1.3,2.793,1.3,4.58c0,1.44-0.28,2.687-0.84,3.74c-0.56,1.054-1.313,1.914-2.26,2.58
		c-0.947,0.667-2.027,1.16-3.24,1.48s-2.46,0.48-3.74,0.48h-13.84V0H85.799z M84.999,11.56c1.12,0,2.04-0.266,2.76-0.8
		c0.72-0.533,1.08-1.4,1.08-2.6c0-0.667-0.12-1.213-0.36-1.64c-0.24-0.426-0.56-0.76-0.96-1c-0.4-0.24-0.86-0.406-1.38-0.5
		c-0.52-0.093-1.06-0.14-1.62-0.14h-5.88v6.68H84.999z M85.359,23.68c0.613,0,1.2-0.06,1.76-0.18s1.053-0.32,1.48-0.6
		c0.426-0.28,0.766-0.66,1.02-1.14c0.253-0.48,0.38-1.093,0.38-1.84c0-1.466-0.414-2.513-1.24-3.14
		c-0.827-0.626-1.92-0.94-3.28-0.94h-6.84v7.84H85.359z"/>
	<path fill="#444444" d="M97.039,13.74c0.506-1.346,1.227-2.493,2.16-3.44c0.933-0.946,2.053-1.68,3.36-2.2s2.773-0.78,4.4-0.78
		c1.626,0,3.1,0.26,4.42,0.78c1.32,0.52,2.446,1.254,3.38,2.2c0.933,0.947,1.653,2.094,2.16,3.44c0.506,1.347,0.76,2.847,0.76,4.5
		c0,1.654-0.254,3.146-0.76,4.48c-0.507,1.333-1.227,2.474-2.16,3.42c-0.934,0.947-2.06,1.674-3.38,2.18
		c-1.32,0.506-2.794,0.76-4.42,0.76c-1.627,0-3.094-0.254-4.4-0.76c-1.307-0.506-2.427-1.233-3.36-2.18
		c-0.934-0.946-1.654-2.086-2.16-3.42c-0.507-1.333-0.76-2.826-0.76-4.48C96.279,16.587,96.532,15.087,97.039,13.74z M102.199,20.66
		c0.16,0.787,0.433,1.494,0.82,2.12s0.9,1.126,1.54,1.5c0.64,0.374,1.44,0.56,2.4,0.56s1.766-0.186,2.42-0.56
		c0.653-0.374,1.173-0.874,1.56-1.5c0.386-0.626,0.66-1.333,0.82-2.12c0.16-0.786,0.24-1.593,0.24-2.42s-0.08-1.64-0.24-2.44
		c-0.16-0.8-0.434-1.506-0.82-2.12c-0.387-0.613-0.907-1.113-1.56-1.5c-0.654-0.386-1.46-0.58-2.42-0.58s-1.76,0.194-2.4,0.58
		c-0.64,0.387-1.153,0.887-1.54,1.5c-0.387,0.614-0.66,1.32-0.82,2.12c-0.16,0.8-0.24,1.613-0.24,2.44S102.039,19.874,102.199,20.66
		z"/>
	<path fill="#444444" d="M133.039,25.92c-0.667,1.12-1.54,1.927-2.62,2.42c-1.08,0.493-2.3,0.74-3.66,0.74
		c-1.547,0-2.907-0.3-4.08-0.9c-1.174-0.6-2.14-1.413-2.9-2.44c-0.76-1.026-1.334-2.207-1.72-3.54c-0.387-1.333-0.58-2.72-0.58-4.16
		c0-1.386,0.193-2.726,0.58-4.02c0.386-1.293,0.96-2.433,1.72-3.42c0.76-0.986,1.713-1.78,2.86-2.38c1.146-0.6,2.48-0.9,4-0.9
		c1.226,0,2.393,0.26,3.5,0.78c1.106,0.52,1.98,1.287,2.62,2.3h0.08V0h5.68v28.56h-5.4v-2.64H133.039z M132.799,15.7
		c-0.16-0.787-0.434-1.48-0.82-2.08c-0.387-0.6-0.887-1.086-1.5-1.46c-0.614-0.373-1.387-0.56-2.32-0.56
		c-0.934,0-1.72,0.187-2.36,0.56c-0.64,0.374-1.154,0.867-1.54,1.48c-0.387,0.614-0.667,1.313-0.84,2.1
		c-0.174,0.787-0.26,1.607-0.26,2.46c0,0.8,0.093,1.6,0.28,2.4c0.186,0.8,0.486,1.514,0.9,2.14c0.413,0.626,0.933,1.134,1.56,1.52
		c0.626,0.387,1.38,0.58,2.26,0.58c0.933,0,1.713-0.186,2.34-0.56s1.126-0.874,1.5-1.5s0.64-1.34,0.8-2.14
		c0.16-0.8,0.24-1.626,0.24-2.48C133.039,17.307,132.958,16.487,132.799,15.7z"/>
	<path fill="#444444" d="M145.878,23.6c0.853,0.827,2.08,1.24,3.68,1.24c1.146,0,2.133-0.286,2.96-0.86
		c0.826-0.573,1.333-1.18,1.52-1.82h5c-0.8,2.48-2.027,4.253-3.68,5.32c-1.654,1.067-3.654,1.6-6,1.6c-1.627,0-3.094-0.26-4.4-0.78
		c-1.307-0.52-2.414-1.26-3.32-2.22c-0.907-0.96-1.607-2.106-2.1-3.44c-0.494-1.333-0.74-2.8-0.74-4.4
		c0-1.546,0.253-2.986,0.76-4.32c0.506-1.333,1.227-2.486,2.16-3.46c0.933-0.973,2.046-1.74,3.34-2.3
		c1.293-0.56,2.727-0.84,4.3-0.84c1.76,0,3.293,0.34,4.6,1.02c1.307,0.68,2.38,1.594,3.22,2.74c0.84,1.147,1.446,2.454,1.82,3.92
		c0.373,1.467,0.506,3,0.4,4.6h-14.92C144.558,21.44,145.024,22.774,145.878,23.6z M152.298,12.72c-0.68-0.747-1.714-1.12-3.1-1.12
		c-0.907,0-1.66,0.154-2.26,0.46c-0.6,0.307-1.08,0.687-1.44,1.14c-0.36,0.454-0.614,0.934-0.76,1.44
		c-0.147,0.507-0.234,0.96-0.26,1.36h9.24C153.451,14.56,152.978,13.467,152.298,12.72z"/>
	<path fill="#444444" d="M159.917,4.68V0h5.68v4.68H159.917z M165.598,7.88v20.68h-5.68V7.88H165.598z"/>
	<path fill="#444444" d="M178.438,7.88v3.8h-4.16v10.24c0,0.96,0.16,1.6,0.48,1.92c0.32,0.32,0.96,0.48,1.92,0.48
		c0.32,0,0.626-0.013,0.92-0.04c0.293-0.026,0.573-0.066,0.84-0.12v4.4c-0.48,0.08-1.014,0.133-1.6,0.16
		c-0.587,0.026-1.16,0.04-1.72,0.04c-0.88,0-1.714-0.06-2.5-0.18c-0.787-0.12-1.48-0.353-2.08-0.7c-0.6-0.346-1.074-0.84-1.42-1.48
		c-0.347-0.64-0.52-1.48-0.52-2.52v-12.2h-3.44v-3.8h3.44v-6.2h5.68v6.2H178.438z"/>
	<path fill="#94C248" d="M192.797,22.4v6.16h-6.28V22.4H192.797z"/>
</g>
</svg>
